<?xml version="1.0" encoding="UTF-8" standalone="no"?>
<!-- Created with Inkscape (http://www.inkscape.org/) -->

<svg
   xmlns:dc="http://purl.org/dc/elements/1.1/"
   xmlns:cc="http://creativecommons.org/ns#"
   xmlns:rdf="http://www.w3.org/1999/02/22-rdf-syntax-ns#"
   xmlns:svg="http://www.w3.org/2000/svg"
   xmlns="http://www.w3.org/2000/svg"
   version="1.1"
   width="300"
   height="144.34299"
   id="svg11836">
  <defs
     id="defs11838">
    <clipPath
       id="clipPath6329">
      <path
         d="m 518.795,45.689 49.189,0 0,23.657 -49.189,0 0,-23.657 z"
         id="path6331" />
    </clipPath>
  </defs>
  <metadata
     id="metadata11841">
    <rdf:RDF>
      <cc:Work
         rdf:about="">
        <dc:format>image/svg+xml</dc:format>
        <dc:type
           rdf:resource="http://purl.org/dc/dcmitype/StillImage" />
        <dc:title></dc:title>
      </cc:Work>
    </rdf:RDF>
  </metadata>
  <g
     transform="translate(35.714285,-371.61926)"
     id="layer1">
    <g
       transform="translate(191.39064,-942.17025)"
       id="g11653">
      <g
         transform="matrix(6.1229238,0,0,-6.1229238,-3403.6931,1737.9985)"
         id="g6325"
         style="fill:#ffffff">
        <g
           clip-path="url(#clipPath6329)"
           id="g6327"
           style="fill:#ffffff">
          <g
             transform="translate(538.4872,48.883896)"
             id="g6333"
             style="fill:#ffffff">
            <path
               d="m 0,0 c -0.114,0.205 -0.261,0.31 -0.494,0.31 -0.245,0 -0.514,-0.179 -0.514,-0.468 0,-0.257 0.236,-0.392 0.428,-0.47 l 0.22,-0.093 c 0.438,-0.182 0.764,-0.44 0.764,-0.99 0,-0.598 -0.432,-1.027 -0.984,-1.027 -0.497,0 -0.885,0.393 -0.951,0.922 l 0.388,0.087 c -0.004,-0.362 0.265,-0.624 0.596,-0.624 0.331,0 0.567,0.297 0.567,0.642 0,0.354 -0.265,0.506 -0.53,0.624 l -0.212,0.096 c -0.351,0.161 -0.671,0.375 -0.671,0.833 0,0.533 0.442,0.852 0.907,0.852 0.343,0 0.625,-0.179 0.792,-0.498 L 0,0 z"
               id="path6335"
               style="fill:#ffffff;fill-opacity:1;fill-rule:nonzero;stroke:none" />
          </g>
          <g
             transform="translate(540.1411,46.216507)"
             id="g6337"
             style="fill:#ffffff">
            <path
               d="m 0,0 -0.384,0 0,2.916 -0.73,0 0,0.376 1.845,0 0,-0.376 L 0,2.916 0,0 z"
               id="path6339"
               style="fill:#ffffff;fill-opacity:1;fill-rule:nonzero;stroke:none" />
          </g>
          <g
             transform="translate(541.505,49.508102)"
             id="g6341"
             style="fill:#ffffff">
            <path
               d="m 0,0 0,-1.942 c 0,-0.538 0.151,-1.035 0.743,-1.035 0.592,0 0.743,0.497 0.743,1.035 l 0,1.942 0.384,0 0,-2.082 c 0,-0.725 -0.421,-1.28 -1.127,-1.28 -0.706,0 -1.127,0.555 -1.127,1.28 L -0.384,0 0,0 z"
               id="path6343"
               style="fill:#ffffff;fill-opacity:1;fill-rule:nonzero;stroke:none" />
          </g>
          <g
             transform="translate(544.2576,46.591904)"
             id="g6345"
             style="fill:#ffffff">
            <path
               d="m 0,0 0.135,0 c 0.783,0 1.461,0.314 1.461,1.27 0,0.961 -0.678,1.271 -1.461,1.271 L 0,2.541 0,0 z m -0.384,2.916 0.637,0 c 0.944,0 1.727,-0.532 1.727,-1.628 0,-1.122 -0.768,-1.663 -1.74,-1.663 l -0.624,0 0,3.291 z"
               id="path6347"
               style="fill:#ffffff;fill-opacity:1;fill-rule:nonzero;stroke:none" />
          </g>
          <path
             d="m 546.994,46.216 -0.384,0 0,3.292 0.384,0 0,-3.292 z"
             id="path6349"
             style="fill:#ffffff;fill-opacity:1;fill-rule:nonzero;stroke:none" />
          <g
             transform="translate(550.1942,47.862396)"
             id="g6351"
             style="fill:#ffffff">
            <path
               d="m 0,0 c 0,0.725 -0.506,1.332 -1.229,1.332 -0.722,0 -1.228,-0.607 -1.228,-1.332 0,-0.751 0.563,-1.332 1.228,-1.332 C -0.563,-1.332 0,-0.751 0,0 m 0.384,0 c 0,-0.978 -0.722,-1.715 -1.613,-1.715 -0.89,0 -1.612,0.737 -1.612,1.715 0,0.943 0.731,1.715 1.612,1.715 0.882,0 1.613,-0.772 1.613,-1.715"
               id="path6353"
               style="fill:#ffffff;fill-opacity:1;fill-rule:nonzero;stroke:none" />
          </g>
          <g
             transform="translate(554.93491,47.875397)"
             id="g6355"
             style="fill:#ffffff">
            <path
               d="m 0,0 0,-0.131 c 0,-0.904 -0.596,-1.598 -1.457,-1.598 -0.862,0 -1.556,0.795 -1.556,1.707 0,0.947 0.711,1.725 1.596,1.725 0.478,0 0.952,-0.231 1.254,-0.638 L -0.432,0.79 c -0.221,0.323 -0.593,0.537 -0.968,0.537 -0.69,0 -1.229,-0.598 -1.229,-1.335 0,-0.691 0.531,-1.345 1.196,-1.345 0.478,0 0.992,0.44 1.008,0.978 l -0.796,0 0,0.375 L 0,0 z"
               id="path6357"
               style="fill:#ffffff;fill-opacity:1;fill-rule:nonzero;stroke:none" />
          </g>
          <g
             transform="translate(557.1321,48.181107)"
             id="g6359"
             style="fill:#ffffff">
            <path
               d="m 0,0 0,1.327 0.384,0 0,-3.291 -0.384,0 0,1.579 -1.465,0 0,-1.579 -0.384,0 0,3.291 0.384,0 L -1.465,0 0,0 z"
               id="path6361"
               style="fill:#ffffff;fill-opacity:1;fill-rule:nonzero;stroke:none" />
          </g>
          <path
             d="m 558.444,46.216 -0.384,0 0,3.292 0.384,0 0,-3.292 z"
             id="path6363"
             style="fill:#ffffff;fill-opacity:1;fill-rule:nonzero;stroke:none" />
          <g
             transform="translate(559.37019,46.583298)"
             id="g6365"
             style="fill:#ffffff">
            <path
               d="M 0,0 0.294,0 C 0.649,0 1.02,0.113 1.02,0.581 1.02,1.043 0.58,1.14 0.237,1.14 L 0,1.14 0,0 z m 0,1.466 0.098,0 c 0.364,0 0.661,0.079 0.661,0.551 0,0.463 -0.294,0.541 -0.653,0.541 L 0,2.558 0,1.466 z m -0.384,1.459 0.376,0 c 0.579,0 1.126,-0.161 1.126,-0.904 0,-0.239 -0.122,-0.519 -0.331,-0.624 l 0,-0.008 c 0.364,-0.071 0.617,-0.45 0.617,-0.834 0,-0.66 -0.526,-0.922 -1.069,-0.922 l -0.719,0 0,3.292 z"
               id="path6367"
               style="fill:#ffffff;fill-opacity:1;fill-rule:nonzero;stroke:none" />
          </g>
          <g
             transform="translate(561.5876,46.591904)"
             id="g6369"
             style="fill:#ffffff">
            <path
               d="m 0,0 0.935,0 0,-0.375 -1.319,0 0,3.291 L 0,2.916 0,0 z"
               id="path6371"
               style="fill:#ffffff;fill-opacity:1;fill-rule:nonzero;stroke:none" />
          </g>
          <path
             d="m 563.146,46.216 -0.384,0 0,3.292 0.384,0 0,-3.292 z"
             id="path6373"
             style="fill:#ffffff;fill-opacity:1;fill-rule:nonzero;stroke:none" />
          <g
             transform="translate(532.7198,51.701706)"
             id="g6375"
             style="fill:#ffffff">
            <path
               d="m 0,0 c 0.946,0.371 2.005,1.383 2.472,2.749 l -2.228,0 0,0.499 2.879,0 C 3.067,2.992 2.909,2.236 2.3,1.347 2.553,1.131 3.179,0.587 3.749,-0.013 L 3.345,-0.449 C 3.17,-0.229 2.858,0.161 2.009,0.953 1.71,0.587 1.114,-0.074 0.296,-0.43 L 0,0 z"
               id="path6377"
               style="fill:#ffffff;fill-opacity:1;fill-rule:nonzero;stroke:none" />
          </g>
          <g
             transform="translate(537.9548,53.584793)"
             id="g6379"
             style="fill:#ffffff">
            <path
               d="m 0,0 c 0.184,-0.083 0.544,-0.248 0.994,-0.65 0.377,0.517 0.475,1.008 0.514,1.195 l -1.499,0 C -0.416,-0.083 -0.78,-0.353 -1.118,-0.563 l -0.321,0.385 c 0.749,0.417 1.139,0.97 1.434,1.791 L 0.514,1.508 C 0.432,1.315 0.381,1.196 0.287,1.021 l 1.825,0 C 2,0.303 1.632,-1.8 -0.895,-2.429 l -0.274,0.454 c 0.29,0.051 1.019,0.179 1.82,0.935 -0.428,0.403 -0.818,0.6 -0.986,0.687 L 0,0 z"
               id="path6381"
               style="fill:#ffffff;fill-opacity:1;fill-rule:nonzero;stroke:none" />
          </g>
          <g
             transform="translate(540.39349,51.852997)"
             id="g6383"
             style="fill:#ffffff">
            <path
               d="M 0,0 C 1.615,0.142 2.348,0.665 2.904,2.492 L 3.368,2.272 C 2.785,0.536 2.061,-0.316 0.12,-0.55 L 0,0 z M 3.217,2.744 C 3.119,3.157 3.037,3.344 2.994,3.445 L 3.342,3.528 C 3.462,3.263 3.543,2.96 3.573,2.85 L 3.217,2.744 z M 2.592,2.648 C 2.532,2.96 2.477,3.143 2.39,3.386 L 2.742,3.468 C 2.849,3.193 2.888,3.074 2.96,2.74 L 2.592,2.648 z M 0.96,1.131 c -0.497,0.29 -0.994,0.463 -1.204,0.532 l 0.196,0.476 C 0.112,2.09 0.75,1.887 1.157,1.649 L 0.96,1.131 z M 1.29,2.194 C 0.865,2.424 0.463,2.579 0.094,2.694 L 0.3,3.175 C 0.946,2.969 1.268,2.813 1.508,2.694 L 1.29,2.194 z"
               id="path6385"
               style="fill:#ffffff;fill-opacity:1;fill-rule:nonzero;stroke:none" />
          </g>
          <g
             transform="translate(548.24699,51.852997)"
             id="g6387"
             style="fill:#ffffff">
            <path
               d="M 0,0 C 1.615,0.142 2.348,0.665 2.904,2.492 L 3.368,2.272 C 2.785,0.536 2.061,-0.316 0.12,-0.55 L 0,0 z M 3.217,2.744 C 3.119,3.157 3.037,3.344 2.994,3.445 L 3.342,3.528 C 3.462,3.263 3.543,2.96 3.573,2.85 L 3.217,2.744 z M 2.592,2.648 C 2.532,2.96 2.477,3.143 2.39,3.386 L 2.742,3.468 C 2.849,3.193 2.888,3.074 2.96,2.74 L 2.592,2.648 z M 0.96,1.131 c -0.497,0.29 -0.994,0.463 -1.204,0.532 l 0.196,0.476 C 0.112,2.09 0.75,1.887 1.157,1.649 L 0.96,1.131 z M 1.29,2.194 C 0.866,2.424 0.463,2.579 0.094,2.694 L 0.3,3.175 C 0.947,2.969 1.268,2.813 1.508,2.694 L 1.29,2.194 z"
               id="path6389"
               style="fill:#ffffff;fill-opacity:1;fill-rule:nonzero;stroke:none" />
          </g>
          <g
             transform="translate(555.505,54.720993)"
             id="g6391"
             style="fill:#ffffff">
            <path
               d="M 0,0 C -0.03,0.184 -0.112,0.491 -0.184,0.665 L 0.167,0.733 C 0.248,0.508 0.287,0.371 0.347,0.087 L 0,0 z m -0.45,0.697 c 0.078,-0.193 0.12,-0.349 0.18,-0.638 l -0.129,-0.018 0,-0.009 0.257,0 c -0.072,-1.993 -1.01,-3.124 -2.617,-3.492 l -0.27,0.491 c 0.69,0.142 2.108,0.445 2.339,2.506 l -2.712,0 0,0.495 2.746,0 c -0.038,0.229 -0.077,0.366 -0.162,0.601 l 0.368,0.064 z"
               id="path6393"
               style="fill:#ffffff;fill-opacity:1;fill-rule:nonzero;stroke:none" />
          </g>
          <g
             transform="translate(558.9539,53.346497)"
             id="g6395"
             style="fill:#ffffff">
            <path
               d="M 0,0 C 0,-0.72 -0.124,-1.283 -0.622,-1.686 -1.011,-2.003 -1.41,-2.084 -2.275,-2.185 l -0.158,0.504 c 1.097,0.073 1.928,0.256 1.928,1.438 l 0,1.984 L 0,1.741 0,0 z m -2.163,-0.83 -0.496,0 0,2.488 0.496,0 0,-2.488 z"
               id="path6397"
               style="fill:#ffffff;fill-opacity:1;fill-rule:nonzero;stroke:none" />
          </g>
          <g
             transform="translate(561.7126,55.307404)"
             id="g6399"
             style="fill:#ffffff">
            <path
               d="m 0,0 c -0.034,-0.151 -0.073,-0.316 -0.176,-0.582 l 1.847,0 0,-0.453 -1.423,0 0,-0.651 1.316,0 0,-0.453 -1.316,0 0,-0.656 1.316,0 0,-0.449 -1.316,0 0,-1.027 -0.462,0 0,3.236 -0.163,0 C -0.664,-1.599 -0.895,-1.86 -1.028,-2.016 l -0.292,0.39 c 0.468,0.485 0.742,1.213 0.845,1.681 L 0,0 z m -1.846,-1.865 -0.009,0 C -2,-2.067 -2.117,-2.181 -2.232,-2.291 l -0.197,0.453 c 0.475,0.477 0.762,0.999 0.951,1.889 l 0.454,-0.083 c -0.06,-0.22 -0.158,-0.601 -0.369,-1.054 l 0,-3.185 -0.453,0 0,2.406 z"
               id="path6401"
               style="fill:#ffffff;fill-opacity:1;fill-rule:nonzero;stroke:none" />
          </g>
          <path
             d="m 564.604,54.011 2.091,0 0,0.779 -2.091,0 0,-0.779 z m -0.423,1.209 2.93,0 0,-1.641 -2.93,0 0,1.641 z m 2.003,-3.519 0.912,0 0,1.086 -0.912,0 0,-1.086 z m -2.412,1.508 1.666,0 0,-2.122 -0.411,0 0,0.188 -0.846,0 0,-0.22 -0.409,0 0,2.154 z m 0.409,-1.508 0.849,0 0,1.086 -0.849,0 0,-1.086 z m 1.589,1.508 1.739,0 0,-2.154 -0.411,0 0,0.22 -0.914,0 0,-0.22 -0.414,0 0,2.154 z"
             id="path6403"
             style="fill:#ffffff;fill-opacity:1;fill-rule:nonzero;stroke:none" />
          <g
             transform="translate(544.1658,51.982895)"
             id="g6405"
             style="fill:#ffffff">
            <path
               d="m 0,0 c 1.295,0.941 1.732,1.792 1.8,1.937 l -1.823,0.002 0,0.504 2.118,0 0,0.767 0.477,0 0,-0.767 0.971,0 0,-0.516 -0.967,0 10e-4,-2.684 -0.482,0 10e-4,2.282 c 0,0 -0.387,-0.935 -1.815,-1.96 L 0,0 z"
               id="path6407"
               style="fill:#ffffff;fill-opacity:1;fill-rule:nonzero;stroke:none" />
          </g>
          <g
             transform="translate(532.5797,50.402801)"
             id="g6409"
             style="fill:#ffffff">
            <path
               d="M 0,0 35.219,0"
               id="path6411"
               style="fill:#ffffff;fill-opacity:1;fill-rule:nonzero;stroke:none" />
          </g>
          <g
             transform="translate(532.5797,50.431793)"
             id="g6413"
             style="fill:#ffffff">
            <path
               d="m 0,0 35.219,0 0,-0.058 -35.219,0"
               id="path6415"
               style="fill:#ffffff;fill-opacity:1;fill-rule:nonzero;stroke:none" />
          </g>
          <g
             transform="translate(532.9666,62.316498)"
             id="g6417"
             style="fill:#ffffff">
            <path
               d="m 0,0 0,-0.047 -0.076,-0.026 -0.208,0.005 -0.208,-0.009 -0.011,0.021 0.096,0.06 c 0.139,-0.026 0.26,0.043 0.387,0.008 L 0,0 z"
               id="path6419"
               style="fill:#ffffff;fill-opacity:1;fill-rule:nonzero;stroke:none" />
          </g>
          <g
             transform="translate(527.9642,57.676102)"
             id="g6421"
             style="fill:#ffffff">
            <path
               d="m 0,0 -0.036,-0.043 -0.068,-0.09 -0.048,-0.055 -0.144,-0.116 -0.147,-0.097 c -0.096,-0.086 -0.228,-0.151 -0.384,-0.176 l -0.188,-0.021 c -0.108,0.012 -0.227,0.012 -0.315,0.06 l -0.096,0.03 c -0.127,0.066 -0.176,0.114 -0.224,0.252 l -0.004,0.034 -0.008,0 -0.008,0.107 -0.012,0.03 -0.02,0.234 0,0.035 0.004,0 0.004,0.171 0.015,0.034 0.017,0.034 0.008,0 0.004,0.055 0.003,0 0.013,0.044 0,0.157 0.016,0.03 0.007,0.039 0.009,0.068 0.008,0 0.004,0.039 0.004,0 0.012,0.038 0,0.026 0.008,0 0.008,0.046 0.007,0 0.073,0.137 0.044,0.056 c 0.096,0.059 0.179,0.146 0.331,0.154 l 0.176,0.06 c 0.096,-0.005 0.184,-0.03 0.28,-0.048 l 0.2,-0.097 0.119,-0.129 0.008,0 0.009,-0.026 0.007,0 0.036,-0.068 c 0.157,-0.306 0.227,-0.5 0.256,-0.855 L -0.008,0.111 0,0.111 0,0 z M 0.303,-0.008 0.196,0.051 0.164,0.077 0.14,0.099 0.124,0.167 l -0.009,0 -0.011,0.188 -0.004,0 -0.008,0.05 -0.013,0.078 -0.015,0.124 -0.008,0 -0.012,0.06 -0.004,0 -0.016,0.051 -0.016,0.06 -0.032,0.094 -0.008,0 -0.019,0.051 c -0.151,0.369 -0.235,0.451 -0.62,0.546 l -0.12,0.039 c -0.128,0.005 -0.268,0 -0.383,-0.043 -0.092,0.01 -0.141,-0.042 -0.204,-0.076 L -1.534,1.278 -1.579,1.209 -1.59,1.175 -1.638,1.111 -1.662,1.081 -1.674,1.034 l -0.005,0 -0.019,-0.038 0,-0.013 -0.012,-0.043 -0.004,0 -0.012,-0.064 -0.008,0 0,-0.021 -0.008,-0.077 -0.008,0 -0.008,-0.099 -0.008,0 -0.012,-0.055 -0.004,0 -0.012,-0.072 -0.004,0 -0.004,-0.052 -0.008,0 0,-0.043 -0.008,0 0.008,-0.072 -0.08,-0.133 -0.004,0 0.004,-0.043 0.004,-0.012 0.076,-0.098 -0.008,0 0,-0.031 -0.004,-0.106 0.012,-0.065 0.012,-0.068 0.004,-0.021 0.008,0 0.004,-0.039 0.016,-0.051 0.016,-0.034 0.064,-0.095 0.135,-0.127 0.128,-0.103 c 0.132,-0.034 0.256,-0.115 0.416,-0.077 0.092,0.013 0.208,0.009 0.268,0.069 l 0.112,0.021 0.088,0.025 0.187,0.099 0.132,0.099 c 0.092,0.05 0.136,0.135 0.212,0.196 l 0.072,0.09 0.028,0.025 0.164,0.021 0.047,0.065"
               id="path6423"
               style="fill:#ffffff;fill-opacity:1;fill-rule:nonzero;stroke:none" />
          </g>
          <g
             transform="translate(524.65199,58.838303)"
             id="g6425"
             style="fill:#ffffff">
            <path
               d="m 0,0 0.012,-0.004 -0.004,0 0,-0.008 -0.004,0 -0.028,-0.107 -0.008,0 -0.012,-0.065 -0.004,0 -0.012,-0.08 -0.004,0 -0.008,-0.048 -0.012,-0.073 -0.008,0 0,-0.038 -0.008,0 -0.028,-0.056 -0.048,0.03 -0.003,0.034 0.007,0 0.008,0.12 0.008,0 0.012,0.055 0.004,0 0.004,0.048 0.008,0 0.008,0.063 0.008,0 0.02,0.065 0.008,0.026 0.016,0.026 0,0.016 0.008,0.008 0.036,0.026 L 0,0 z"
               id="path6427"
               style="fill:#ffffff;fill-opacity:1;fill-rule:nonzero;stroke:none" />
          </g>
          <g
             transform="translate(524.74789,58.564896)"
             id="g6429"
             style="fill:#ffffff">
            <path
               d="m 0,0 0.004,-0.018 0.008,-0.042 -0.008,0 -0.012,-0.069 -0.068,-0.02 -0.016,0.089 0.016,0.038 L 0,0 z"
               id="path6431"
               style="fill:#ffffff;fill-opacity:1;fill-rule:nonzero;stroke:none" />
          </g>
          <g
             transform="translate(524.8958,58.475006)"
             id="g6433"
             style="fill:#ffffff">
            <path
               d="m 0,0 0.016,-0.026 0,-0.068 -0.028,-0.025 -0.064,0.059 0.004,0.038 0.012,0.01 L 0,0 z"
               id="path6435"
               style="fill:#ffffff;fill-opacity:1;fill-rule:nonzero;stroke:none" />
          </g>
          <g
             transform="translate(525.1194,58.351105)"
             id="g6437"
             style="fill:#ffffff">
            <path
               d="m 0,0 0.008,-0.047 -0.024,-0.03 -0.067,0.026 -0.017,0.043 0.004,0.046 0.06,0 L 0,0 z"
               id="path6439"
               style="fill:#ffffff;fill-opacity:1;fill-rule:nonzero;stroke:none" />
          </g>
          <g
             transform="translate(526.7296,57.979507)"
             id="g6441"
             style="fill:#ffffff">
            <path
               d="M 0,0 -0.024,0.03 -0.032,0.094 -0.004,0.107 0.008,0.094 0.012,0.073 0,0 m 0.096,0.111 -0.017,0.09 -0.007,0 L 0.064,0.299 0.04,0.346 -0.024,0.411 C -0.152,0.453 -0.192,0.342 -0.247,0.282 l -0.025,-0.034 -0.012,-0.043 -0.004,0 0,-0.026 -0.012,-0.038 -0.007,0 -0.008,-0.175 0.015,-0.158 0.012,-0.022 0.088,-0.141 0.168,0.009 0.048,0.03 0.056,0.102 0.007,0 0.009,0.047 c -0.009,0.103 0.02,0.179 0.008,0.278"
               id="path6443"
               style="fill:#ffffff;fill-opacity:1;fill-rule:nonzero;stroke:none" />
          </g>
          <g
             transform="translate(523.3654,57.312897)"
             id="g6445"
             style="fill:#ffffff">
            <path
               d="m 0,0 0.016,-0.026 0.031,-0.047 0.009,-0.046 -0.048,-0.056 -0.228,-0.06 -0.127,0.064 0.015,0.034 0.004,0 0.013,0.052 0.008,0 0.007,0.047 0.044,0.056 0.188,0.038 L 0,0 z"
               id="path6447"
               style="fill:#ffffff;fill-opacity:1;fill-rule:nonzero;stroke:none" />
          </g>
          <g
             transform="translate(527.5166,55.800201)"
             id="g6449"
             style="fill:#ffffff">
            <path
               d="m 0,0 c -0.164,-0.004 -0.319,0 -0.479,0 l -0.168,0.021 -0.032,0.03 0.027,0.013 0.36,-0.038 C -0.192,0.056 -0.096,0.012 0,0.008 L 0,0 z M 3.424,-0.411 C 3.277,-0.359 3.105,-0.359 2.964,-0.304 2.829,-0.29 2.704,-0.248 2.557,-0.26 L 2.414,-0.231 2.278,-0.205 C 2.174,-0.184 2.062,-0.179 1.95,-0.171 1.854,-0.119 1.718,-0.153 1.63,-0.103 1.47,-0.094 1.347,-0.018 1.187,-0.038 1.074,-0.034 0.983,0.008 0.863,-0.004 0.748,0.03 0.607,0.012 0.492,0.034 L 0.275,0.051 C 0.124,0.068 -0.036,0.085 -0.192,0.068 -0.328,0.094 -0.471,0.115 -0.624,0.111 l -0.195,0.03 -0.036,-0.077 -0.008,0 0.004,-0.043 0.096,-0.111 c 0.12,-0.033 0.26,-0.081 0.395,-0.043 0.108,-0.004 0.212,-0.02 0.316,-0.008 0.1,-0.017 0.204,0.004 0.3,-0.022 l 0.195,-0.016 c 0.128,-0.009 0.252,0.004 0.376,-0.017 0.096,0.025 0.176,-0.022 0.272,-0.026 l 0.343,-0.026 c 0.117,-0.038 0.256,-0.017 0.372,-0.047 0.108,-0.004 0.216,-0.004 0.316,-0.03 l 0.224,-0.021 0.187,-0.039 0.168,-0.026 c 0.12,-0.042 0.263,-0.038 0.384,-0.081 l 0.207,-0.042 0.172,0.022 0.008,0.012 -0.048,0.089"
               id="path6451"
               style="fill:#ffffff;fill-opacity:1;fill-rule:nonzero;stroke:none" />
          </g>
          <g
             transform="translate(526.0864,55.291702)"
             id="g6453"
             style="fill:#ffffff">
            <path
               d="m 0,0 c 0.12,-0.038 0.271,-0.008 0.392,-0.064 l 0.171,-0.039 0.108,-0.038 c 0.1,0 0.2,-0.034 0.303,-0.038 l 0.085,-0.095 0,-0.051 C 0.907,-0.316 0.78,-0.256 0.631,-0.24 L 0.439,-0.196 C 0.211,-0.188 0.02,-0.064 -0.216,-0.115 L -0.356,-0.026 -0.371,0.026 -0.22,0.018 0,0"
               id="path6455"
               style="fill:#ffffff;fill-opacity:1;fill-rule:nonzero;stroke:none" />
          </g>
          <g
             transform="translate(530.765,54.142304)"
             id="g6457"
             style="fill:#ffffff">
            <path
               d="m 0,0 c -0.104,-0.043 -0.215,0.004 -0.315,0.017 -0.145,0.06 -0.316,0.098 -0.464,0.154 l 0,0.004 -0.203,0.034 c -0.105,0.039 -0.22,0.055 -0.337,0.073 L -1.502,0.338 C -1.666,0.411 -1.87,0.47 -2.041,0.53 -2.21,0.556 -2.353,0.619 -2.505,0.667 l -0.16,0.072 0.004,0.013 c 0.092,0.009 0.164,-0.03 0.244,-0.043 0.116,-0.06 0.271,-0.076 0.399,-0.115 L -1.886,0.577 C -1.77,0.542 -1.634,0.53 -1.53,0.474 -1.43,0.449 -1.355,0.385 -1.242,0.376 -1.106,0.325 -0.951,0.295 -0.815,0.248 l 0.252,-0.051 c 0.092,-0.026 0.195,-0.034 0.28,-0.073 l 0.132,-0.039 0.155,-0.063 0.004,0 L 0,0 z M 0.224,0.008 0.164,0.077 0.028,0.175 C -0.06,0.171 -0.108,0.231 -0.196,0.222 -0.268,0.256 -0.328,0.304 -0.428,0.299 -0.584,0.355 -0.771,0.381 -0.943,0.415 L -1.127,0.496 -1.33,0.56 -1.478,0.619 -1.67,0.675 c -0.224,0.073 -0.463,0.099 -0.695,0.163 -0.1,0.029 -0.224,0.021 -0.312,0.067 -0.387,0.06 -0.743,0.171 -1.118,0.249 -0.081,0.051 -0.209,0.043 -0.304,0.081 l -0.092,0.017 c -0.092,0.021 -0.2,0.026 -0.288,0.056 l -0.096,0.016 -0.208,0.065 c -0.099,0.06 -0.235,0.008 -0.32,-0.03 l -0.015,-0.021 0.012,-0.065 0.107,0.043 0.156,-0.043 c 0.14,-0.017 0.264,-0.056 0.392,-0.094 l 0.056,-0.021 0.136,-0.051 c 0.119,-0.013 0.24,0 0.339,-0.047 0.125,-0.018 0.228,-0.077 0.36,-0.047 l 0.044,-0.03 C -3.428,0.979 -3.36,0.931 -3.292,0.901 L -3.368,0.863 -3.428,0.79 -3.416,0.782 c 0.107,-0.038 0.22,-0.055 0.331,-0.094 0.136,-0.021 0.252,-0.09 0.396,-0.098 0.216,-0.073 0.435,-0.124 0.648,-0.197 0.103,-0.034 0.235,-0.051 0.331,-0.098 l 0.084,-0.031 c 0.107,-0.016 0.18,-0.08 0.292,-0.085 0.119,-0.034 0.239,-0.064 0.356,-0.102 l 0.247,-0.065 c 0.156,-0.038 0.324,-0.068 0.471,-0.119 0.104,-0.008 0.196,0.004 0.288,-0.026 l 0.196,0.077 0,0.064"
               id="path6459"
               style="fill:#ffffff;fill-opacity:1;fill-rule:nonzero;stroke:none" />
          </g>
          <g
             transform="translate(523.1696,54.727799)"
             id="g6461"
             style="fill:#ffffff">
            <path
               d="M 0,0 0.012,-0.043 -0.016,-0.068 -0.228,-0.051 -0.232,0 -0.208,0.034 -0.048,0.052 0,0 z"
               id="path6463"
               style="fill:#ffffff;fill-opacity:1;fill-rule:nonzero;stroke:none" />
          </g>
          <g
             transform="translate(528.99899,53.155197)"
             id="g6465"
             style="fill:#ffffff">
            <path
               d="m 0,0 -0.024,0.008 -0.232,0.103 -0.208,0.107 -0.203,0.107 -0.228,0.08 c -0.104,0.048 -0.228,0.074 -0.328,0.129 -0.104,0.03 -0.2,0.064 -0.279,0.129 L -1.67,0.718 c -0.084,0.034 -0.148,0.09 -0.24,0.111 l -0.124,0.043 -0.227,0.111 -0.1,0.069 0.028,0.034 C -2.197,1.072 -2.105,0.987 -1.966,0.97 l 0.052,-0.017 c 0.12,-0.052 0.256,-0.081 0.363,-0.149 0.093,-0.03 0.192,-0.069 0.272,-0.107 L -1.087,0.598 -0.971,0.534 C -0.875,0.496 -0.767,0.449 -0.688,0.393 L -0.511,0.316 -0.396,0.27 -0.156,0.137 0,0.022 0,0 z M 0.515,-0.222 0.396,-0.129 0.271,-0.012 0.02,0.163 c -0.108,0.093 -0.267,0.136 -0.38,0.23 l -0.156,0.081 -0.068,0.03 -0.079,0.048 C -0.755,0.556 -0.791,0.624 -0.867,0.641 L -1.031,0.713 -1.247,0.8 -1.434,0.872 -1.59,0.935 c -0.089,0.061 -0.204,0.091 -0.308,0.133 -0.103,0.013 -0.192,0.06 -0.288,0.081 l -0.011,0.014 -0.24,0.008 -0.045,-0.051 -0.011,-0.048 -0.004,0 0.024,-0.085 0.12,-0.107 c 0.152,-0.056 0.295,-0.136 0.448,-0.187 l 0.215,-0.09 c 0.08,-0.065 0.211,-0.073 0.303,-0.12 0.081,-0.078 0.22,-0.072 0.313,-0.141 0.147,-0.017 0.226,-0.116 0.375,-0.133 l 0.011,-0.012 0.196,-0.094 0.144,-0.056 c 0.124,-0.035 0.236,-0.085 0.324,-0.162 0.092,-0.008 0.164,-0.06 0.252,-0.081 l 0.083,-0.048 0.188,-0.02 0.021,0.029 -0.005,0.013"
               id="path6467"
               style="fill:#ffffff;fill-opacity:1;fill-rule:nonzero;stroke:none" />
          </g>
          <g
             transform="translate(525.3632,52.206696)"
             id="g6469"
             style="fill:#ffffff">
            <path
               d="M 0,0 0.016,0 0.04,-0.034 c 0.076,-0.039 0.139,-0.09 0.231,-0.111 L 0.364,-0.226 0.36,-0.274 0.352,-0.29 0.439,-0.342 c 0.104,-0.017 0.172,-0.069 0.264,-0.089 l 0.064,-0.056 0.032,-0.069 0.02,-0.016 0.016,-0.039 0.008,-0.064 0.008,0 c 0.153,-0.17 0.238,-0.305 0.387,-0.47 l 0.036,-0.064 0.009,0 c 0.105,-0.144 0.302,-0.3 0.355,-0.466 L 1.682,-1.743 C 1.746,-1.833 1.84,-1.976 1.866,-2.09 l 0.012,-0.157 0.012,-0.06 0.004,0 0.02,-0.035 0.016,-0.119 0.007,0 0.029,-0.068 0.016,-0.035 c 0.023,-0.088 0.127,-0.121 0.16,-0.269 l 0.012,-0.026 0.015,-0.063 0.009,-0.035 0.012,-0.175 0.039,-0.103 0.025,-0.042 0.035,-0.048 0.089,-0.076 0.132,-0.133 0.019,-0.039 0.016,-0.175 -0.008,0 -0.012,-0.059 -0.004,0 -0.004,-0.06 -0.007,0 0.003,-0.008 -0.003,0 0,-0.009 0.007,0 0.004,-0.239 0.016,-0.214 0.02,-0.115 0.004,-0.052 0.008,0 0,-0.022 0.005,-0.076 0.007,-0.043 0.004,0 -0.004,-0.197 0.044,-0.059 -0.004,-0.073 -0.008,0 -0.008,-0.06 -0.008,0 -0.004,-0.034 -0.004,0 -0.012,-0.055 -0.044,-0.044 -0.044,0.022 0,0.06 0.008,0 0.013,0.081 0.015,0.081 0,0.026 0.008,0 -0.004,0.051 -0.1,0.09 -0.008,0.051 0.008,0 0.013,0.048 0,0.064 0.004,0 0,0.051 0.007,0 -0.007,0.077 -0.017,0.038 -0.012,0.038 -0.012,0.018 -0.012,0.055 -0.008,0 -0.003,0.141 -0.004,0.086 0.007,0 0,0.141 -0.007,0 0,0.153 0.007,0 0,0.073 0.008,0 -0.024,0.137 -0.008,0 -0.015,0.03 -0.081,0.081 -0.083,0.085 -0.081,0.103 -0.007,0.038 -0.008,0 -0.004,0.039 -0.009,0.102 -0.031,0.082 -0.009,0.064 -0.007,0 -0.016,0.094 -0.012,0.026 -0.016,0.034 -0.064,0.119 -0.004,0 -0.02,0.03 -0.036,0.069 -0.012,0.021 -0.028,0.039 -0.008,0 -0.016,0.042 -0.016,0.055 -0.004,0.04 -0.008,0 -0.012,0.111 -0.008,0.05 -0.016,0.167 -0.008,0 -0.016,0.043 -0.04,0.081 -0.024,0.052 -0.004,0 -0.02,0.03 -0.035,0.063 -0.004,0 -0.021,0.039 c -0.121,0.182 -0.152,0.268 -0.36,0.432 l -0.092,0.123 -0.003,0 -0.033,0.056 C 0.934,-0.92 0.784,-0.922 0.707,-0.683 l -0.08,0.123 -0.007,0 -0.136,0.077 -0.2,0.09 -0.005,0.038 -0.008,0 -0.024,0.056 c -0.1,0 -0.119,0.085 -0.183,0.12 L -0.112,-0.081 -0.147,0.03 -0.096,0.051 0,0"
               id="path6471"
               style="fill:#ffffff;fill-opacity:1;fill-rule:nonzero;stroke:none" />
          </g>
          <g
             transform="translate(523.1097,48.356598)"
             id="g6473"
             style="fill:#ffffff">
            <path
               d="m 0,0 -0.008,-0.133 -0.008,0 -0.004,-0.038 -0.004,0 -0.012,-0.145 0.008,-0.017 -0.004,0 -0.004,-0.154 -0.008,0 -0.016,-0.06 0,-0.013 -0.048,-0.017 -0.052,0.021 -0.036,0.069 -0.015,0.021 -0.021,0.043 -0.02,0.056 -0.04,0.055 -0.004,0.013 -0.096,0.132 -0.019,0.022 -0.041,0.081 -0.004,0.038 -0.008,0 -0.035,0.06 -0.061,0.017 -0.032,0.026 -0.043,0.06 -0.14,0.119 c -0.096,0.039 -0.148,0.129 -0.284,0.115 l -0.164,-0.051 0,-0.012 -0.211,0.008 -0.004,0.013 0.004,0.064 0.164,0.149 0.083,0.065 0.124,0.094 0.112,0.111 0.128,0.103 0.1,0.072 c 0.088,0.034 0.156,0.094 0.252,0.124 l 0.079,-0.013 0.045,-0.042 0.043,-0.048 0.02,-0.043 0.044,-0.05 0.032,-0.039 0.016,-0.038 0.02,-0.078 0.008,0 0.017,-0.047 0.019,-0.054 0.016,-0.048 0.008,0 0.012,-0.059 0.012,-0.026 0.008,-0.03 0.028,-0.171 0.008,0 0.012,-0.21 0.004,0 L 0,0.012 -0.008,0 0,0 z m 0.084,0.103 -0.008,0.102 -0.02,0.111 0.004,0 -0.016,0.103 -0.008,0 L 0.028,0.5 0.02,0.5 0.012,0.538 0,0.649 l -0.016,0.044 -0.008,0 -0.024,0.093 -0.012,0.056 -0.008,0 -0.016,0.073 -0.02,0.038 -0.016,0.038 -0.016,0.035 -0.011,0.012 -0.145,0.133 -0.14,0.09 C -0.584,1.304 -0.684,1.193 -0.771,1.124 L -0.855,1.056 -1.023,0.983 -1.067,0.94 -1.11,0.897 -1.174,0.842 -1.255,0.778 C -1.342,0.735 -1.383,0.649 -1.462,0.59 L -1.498,0.552 C -1.576,0.468 -1.644,0.377 -1.722,0.29 l 0,-0.038 0.008,0 0.004,-0.026 0.056,-0.073 c 0.164,-0.042 0.324,0.014 0.475,0.039 l 0.172,0.034 c 0.096,0.026 0.128,-0.051 0.191,-0.085 l 0.093,-0.094 0.107,-0.073 0.005,-0.017 0.008,0 c 0.07,-0.104 0.167,-0.197 0.228,-0.308 l 0.039,-0.072 0.008,0 0.008,-0.026 0.016,-0.029 0.008,0 0.021,-0.06 0.007,0 0.04,-0.09 0.02,-0.025 0.164,-0.086 0.08,0.042 0.008,0.009 0.003,0.039 0.017,0.188 0.008,0 0,0.076 -0.008,0 0,0.133 0.008,0 0,0.051 0.004,0 0.003,0.052 0.009,0 0.012,0.085 0.004,0 0.004,0.038 0.004,0 0,0.056 -0.028,0.073"
               id="path6475"
               style="fill:#ffffff;fill-opacity:1;fill-rule:nonzero;stroke:none" />
          </g>
          <g
             transform="translate(525.9306,45.856903)"
             id="g6477"
             style="fill:#ffffff">
            <path
               d="m 0,0 -0.028,-0.03 -0.104,0.018 C -0.267,0.092 -0.369,0.233 -0.48,0.363 L -0.492,0.376 C -0.543,0.44 -0.659,0.474 -0.755,0.461 L -0.959,0.504 C -1.067,0.53 -1.151,0.466 -1.251,0.492 l -0.036,0.05 -0.004,0.005 0.004,0 0.004,0.072 0.028,0.03 0.049,0.039 0.051,0.039 0.156,0.136 0,0.009 0.044,0.055 0.12,0.129 0.076,0.063 c 0.068,0.078 0.148,0.137 0.267,0.163 l 0.136,0.013 0.128,-0.112 0.024,-0.03 0.016,-0.025 0.04,-0.102 0.008,0 0.012,-0.039 0.012,-0.022 0.02,-0.042 L -0.084,0.859 -0.076,0.8 C -0.049,0.705 -0.081,0.556 -0.049,0.466 l 0.013,-0.069 0.008,0 0.011,-0.196 0.005,0 L -0.004,0.099 0.008,0.038 0,0 M 0.132,0.034 0.115,0.201 0.108,0.282 0.112,0.282 0.1,0.338 0.096,0.355 0.06,0.522 l -0.004,0 0,0.02 0.004,0 0,0.133 L 0.051,0.85 0.044,0.85 0.036,0.927 0.024,0.957 0.008,1 0,1 l -0.008,0.052 -0.012,0.02 -0.016,0.035 -0.004,0 -0.012,0.025 -0.036,0.039 -0.08,0.107 -0.168,0.149 -0.12,0.026 C -0.575,1.479 -0.627,1.389 -0.723,1.363 l 0,-0.004 -0.128,-0.094 -0.2,-0.197 -0.02,-0.034 0,-0.017 -0.016,-0.03 -0.016,-0.03 -0.12,-0.145 -0.111,-0.09 -0.053,-0.077 -0.019,-0.038 -0.06,-0.073 0,-0.06 0.023,-0.034 c 0.064,-0.073 0.212,-0.111 0.324,-0.073 l 0.14,-0.004 0.227,-0.008 0.004,0.046 0.009,0 0.004,-0.038 -0.008,0 0.012,-0.034 0.024,0 0.147,-0.051 0,-0.008 0.068,-0.061 0.017,-0.034 0.068,-0.094 0.015,-0.021 0.064,-0.086 0.008,0 0.068,-0.068 0.192,-0.055 0.164,0.03 0.028,0.055 0.008,0 0,0.098 -0.008,0 z"
               id="path6479"
               style="fill:#ffffff;fill-opacity:1;fill-rule:nonzero;stroke:none" />
          </g>
          <g
             transform="translate(538.7482,55.706299)"
             id="g6481"
             style="fill:#ffffff">
            <path
               d="m 0,0 0.004,-0.034 0.028,-0.154 0.012,-0.052 0.008,-0.076 0.008,0 0.02,-0.081 0.008,0 0.008,-0.086 0.008,0 0.008,-0.051 0.008,0 0.004,-0.034 0.036,-0.133 0.004,0 0.004,-0.051 0.016,-0.098 0.008,0 0.008,-0.068 0.114,0 -0.003,0.055 -0.008,0 -0.003,0.039 -0.012,0.072 -0.009,0 -0.011,0.051 -0.004,0 -0.016,0.052 -0.012,0.055 -0.008,0.094 -0.008,0 -0.013,0.051 -0.003,0 -0.016,0.056 -0.004,0.055 -0.012,0.022 -0.029,0.149 -0.003,0.052 -0.008,0 -0.008,0.055 -0.012,0.03 -0.016,0.042 -0.008,0 -0.008,0.056 -0.008,0 -0.012,0.061 -0.032,0.076 -0.016,0.051 -0.008,0 -0.02,0.064 -0.016,0.035 -0.016,0.034 -0.02,0.047 -0.004,0 -0.02,0.094 -0.008,0 -0.02,0.085 -0.016,0.048 -0.016,0.03 -0.008,0 -0.019,0.059 -0.017,0.038 -0.028,0.073 -0.016,0.043 -0.007,0 -0.021,0.09 -0.016,0.038 -0.008,0 -0.015,0.06 -0.008,0 -0.021,0.081 -0.016,0.03 -0.016,0.034 -0.007,0 -0.021,0.06 -0.015,0.055 -0.017,0.043 -0.032,0.082 -0.015,0.046 -0.024,0.061 -0.008,0 -0.004,0.042 -0.013,0.047 -0.019,0.09 -0.005,0 -0.012,0.063 -0.011,0.022 -0.013,0.038 -0.008,0 -0.011,0.065 -0.004,0 -0.009,0.034 -0.011,0.06 -0.016,0.047 -0.009,0 -0.019,0.064 -0.017,0.038 -0.064,0.103 -0.047,0.055 -0.068,0.099 0.008,0.076 0.011,0.052 0.005,0 -0.005,0.055 -0.039,0.095 -0.016,0.042 -0.008,0 -0.008,0.026 -0.008,0 -0.02,0.038 -0.008,0 -0.008,0.026 -0.008,0 -0.028,0.051 c -0.173,0.233 -0.267,0.451 -0.403,0.688 l -0.04,0.082 -0.009,0 -0.036,0.059 c -0.086,0.106 -0.164,0.23 -0.279,0.304 L -1.87,4.132 -2.014,4.081 -1.99,4.012 -1.834,3.922 -1.666,3.782 -1.59,3.704 -1.479,3.593 -1.515,3.547 -1.574,3.487 -1.598,3.462 -1.61,3.448 l 0.012,-0.042 0.012,-0.014 0.163,-0.059 0,-0.008 0.008,0 C -1.306,3.194 -1.209,3.052 -1.111,2.91 l 0.016,-0.038 0.008,0 0.06,-0.099 0,-0.047 -0.008,0 -0.007,-0.056 -0.009,0 -0.044,-0.064 -0.008,-0.008 0.004,-0.021 0.052,-0.094 0.088,-0.091 0.004,-0.012 0.116,-0.133 0.02,-0.042 0.008,0 0.04,-0.099 0.019,-0.025 0.021,-0.064 0.008,0 0.012,-0.06 0.008,-0.064 0.015,-0.073 0.021,-0.038 0.024,-0.047 0.004,0 0.012,-0.052 0.007,0 0.013,-0.085 -0.004,0 0.008,-0.064 0.008,0 0.011,-0.051 0.013,-0.026 0.011,-0.06 0.017,-0.043 0.023,-0.034 0.021,-0.051 0.007,0 0.017,-0.072 c 0.037,-0.103 0.093,-0.202 0.136,-0.312 l 0.011,-0.069 0.008,0 0.013,-0.06 0.023,-0.093 0.009,0 0.007,-0.06 0.008,0 0.02,-0.073 0.008,0 0.017,-0.047 0.015,-0.034 0.021,-0.048 0.015,-0.042 0.008,0 0.041,-0.085 0.023,-0.065 0.016,-0.038 0.008,0 L -0.044,0.103 -0.028,0.064 -0.008,0 0,0 z"
               id="path6483"
               style="fill:#ffffff;fill-opacity:1;fill-rule:nonzero;stroke:none" />
          </g>
          <g
             transform="translate(526.6019,63.765106)"
             id="g6485"
             style="fill:#ffffff">
            <path
               d="m 0,0 0,-0.043 -0.008,0 -0.004,-0.038 -0.004,0 -0.012,-0.042 -0.024,-0.03 -0.068,-0.078 -0.152,0.052 -0.044,0.056 -0.023,0.024 -0.017,0.043 -0.012,0.026 -0.016,0.06 0.009,0 0,0.043 0.004,0 0.003,0.094 0.029,0.042 0.039,0.055 0.168,0.04 0.084,-0.082 0.024,-0.069 0.008,0 L 0.004,0.047 0.008,0 0,0 z M 0.1,0.099 0.088,0.201 0.072,0.23 0.04,0.278 0.036,0.286 0,0.32 -0.064,0.381 C -0.132,0.423 -0.228,0.376 -0.316,0.397 L -0.388,0.342 -0.428,0.29 -0.467,0.201 l -0.004,0 -0.013,-0.056 -0.008,0 0,-0.085 0.008,0 0.013,-0.116 0.004,0 0.02,-0.093 0.015,-0.043 0.008,0 0.028,-0.064 0.08,-0.014 0.248,-0.025 0.044,0.035 0.06,0.085 0.016,0.026 0,0.008 0.044,0.085 0.008,0 L 0.1,0.099"
               id="path6487"
               style="fill:#ffffff;fill-opacity:1;fill-rule:nonzero;stroke:none" />
          </g>
          <g
             transform="translate(533.0425,62.966095)"
             id="g6489"
             style="fill:#ffffff">
            <path
               d="m 0,0 0,-0.004 -0.064,0.064 -0.028,0.025 -0.068,0.09 -0.004,0.013 -0.124,0.116 -0.115,0.097 -0.14,0.125 -0.024,0.034 -0.008,0 -0.004,0.012 -0.024,0.039 0.164,-0.077 C -0.292,0.363 -0.158,0.305 -0.028,0.163 L -0.008,0.103 0,0.103 0.008,0.008 0,0 m -0.096,-0.419 -0.048,0.012 0.008,0.022 0.064,0.022 0.004,-0.008 -0.028,-0.048 M -3.412,0.064 -3.437,0.123 -3.32,0.167 -3.305,0.085 -3.412,0.064 M -4.2,0.004 -4.236,-0.047 -4.411,-0.163 -4.671,-0.265 C -4.822,-0.29 -4.926,-0.367 -5.063,-0.411 l -0.2,-0.055 -0.223,-0.124 -0.052,-0.029 c -0.143,-0.03 -0.272,-0.09 -0.379,-0.163 l -0.248,-0.107 c -0.199,-0.134 -0.39,-0.283 -0.528,-0.487 l -0.051,-0.055 -0.168,0.055 -0.045,0.072 -0.015,0.035 -0.053,0.064 -0.007,0.026 -0.008,0 -0.04,0.059 -0.036,0.068 -0.02,0.052 -0.032,0.059 -0.012,0.052 -0.008,0 -0.016,0.043 -0.004,0.03 -0.008,0 -0.012,0.068 -0.012,0.069 -0.008,0 -0.004,0.06 -0.004,0.2 0.008,0.064 -0.008,0.081 0,0.15 0.004,0 0.012,0.051 0,0.154 -0.008,0 0,0.103 0.008,0 -0.012,0.09 -0.004,0 -0.012,0.063 -0.008,0 0,0.086 0.028,0.021 0.095,0.048 0.017,0.025 0.024,0.034 0,0.077 0.012,0 0,0.039 0.008,0 0.003,0.077 0.005,0 -0.005,0.089 -0.027,0.132 -0.056,0.069 -0.084,0.03 0,0.068 0.004,0 0.004,0.047 0.008,0 0.008,0.056 0.008,0 0.096,0.166 0.016,0.038 0.02,0.026 0.035,0.065 0.025,0.026 0.007,0.042 0.009,0 -0.012,0.06 -0.012,0.017 -0.024,0.038 -0.02,0.043 0.004,0 0,0.03 0.004,0 c -0.008,0.111 0.019,0.209 0,0.316 l 0.008,0.004 -0.004,0.022 0.004,0 -0.008,0.115 -0.008,0 -0.008,0.064 -0.008,0 -0.016,0.077 -0.004,0.034 -0.008,0 -0.008,0.065 -0.008,0 -0.004,0.093 C -7.172,2.67 -7.156,2.811 -7.16,2.927 l 0.007,0.141 0.005,0 0.012,0.038 0,0.146 0.008,0 0.012,0.085 0.004,0 0,0.069 0.016,0.008 0.032,-0.026 c 0.053,-0.129 0.107,-0.257 0.18,-0.375 l 0.031,-0.107 0.005,0 0.019,-0.069 0.008,0 0.017,-0.034 0.003,-0.018 0.008,-0.059 0.004,-0.004 -0.004,0 0,-0.124 -0.008,0 -0.011,-0.095 0.008,-0.004 -0.008,0 0.008,-0.004 -0.008,0 0,-0.03 0.008,0 0,-0.012 -0.008,0 0,-0.085 -0.004,0 -0.005,-0.091 -0.008,0 0.008,-0.137 -0.008,0 0,-0.076 -0.007,0 -0.004,-0.158 -0.004,0 0,-0.116 0.008,0 0.024,-0.025 0.083,0.077 0,0.016 0.004,0 0,0.095 0.013,0.145 0,0.038 0.004,0 -0.004,0.115 0,0.065 0.004,0 0.003,0.082 0.008,0 0.013,0.076 0,0.09 0.004,0 0.004,0.119 0.004,0 -0.004,0.005 0.004,0 0.011,0.222 0.004,0 0.013,0.077 0,0.034 0.007,0 0.012,0.06 0.004,0 0.012,0.064 0.004,0 0.012,0.098 0.009,0 0,0.137 -0.009,0 0,0.06 0.009,0 -0.004,0.004 0.004,0 0.007,0.06 0.008,0 0.008,0.069 0.008,0 0.012,0.055 0.004,0 0.012,0.046 0.02,0.018 0.072,-0.09 0.012,-0.043 0.024,-0.038 0.016,-0.03 0.02,-0.065 0.004,0 0.02,-0.038 0.012,-0.043 0.012,-0.03 0.012,-0.076 0.004,0 0.016,-0.039 0.012,-0.016 0.016,-0.039 0.02,-0.064 0.008,0 0.008,-0.048 0.008,0 0.019,-0.05 0.041,-0.069 0.016,-0.047 0.004,-0.038 0.008,0 0.008,-0.082 0.008,0 0.008,-0.123 c 0.007,-0.13 0.014,-0.28 0.103,-0.381 l 0.073,-0.077 c 0.063,-0.072 0.127,-0.141 0.247,-0.167 l 0.168,-0.111 0.116,-0.102 0.028,-0.055 0.008,0 0.016,-0.03 C -5.27,1.577 -5.235,1.455 -5.154,1.346 l 0.04,-0.042 c 0.228,-0.442 0.136,-0.223 0.435,-0.526 l 0.044,-0.065 0.076,-0.149 0.004,0 0.02,-0.06 0.016,-0.06 0.008,0 0.02,-0.077 0.008,0 L -4.467,0.333 -4.435,0.274 -4.423,0.248 -4.419,0.235 -4.2,0.129 -4.179,0.043 -4.2,0.004 m -3.108,0.556 -0.02,0.034 -0.012,0.15 0.008,0.064 0.004,0 0.013,0.051 0.031,0.052 0.036,0.046 0.016,-0.022 0.02,-0.024 -0.072,-0.137 0.032,-0.044 0.036,-0.033 0.02,-0.014 -0.004,-0.05 -0.008,0 L -7.244,0.581 -7.308,0.56 m -5.861,-13.003 0.152,0.102 c 0.107,0.065 0.224,0.121 0.331,0.189 l 0.064,-0.044 0.004,-0.029 0.008,-0.09 0.017,-0.124 0.003,0 0,-0.128 -0.003,0 -0.009,-0.158 0.009,-0.039 0.003,0 0.016,-0.068 0.004,-0.055 0.008,0 0.004,-0.206 0.016,-0.171 0.016,-0.131 0.004,-0.006 -0.004,0 0.008,-0.012 -0.008,0 0.004,-0.008 -0.004,0 -0.008,-0.065 -0.02,-0.021 -0.028,0.004 -0.06,0.09 -0.008,0.018 -0.06,0.111 -0.047,0.055 -0.036,0.076 -0.005,0 -0.036,0.06 -0.019,0.018 c -0.032,0.067 -0.128,0.073 -0.217,0.067 -0.111,-0.012 -0.195,-0.054 -0.299,-0.08 l -0.132,-0.069 -0.2,-0.098 -0.056,0.013 -0.008,0.034 0.004,0 0.013,0.077 0.019,0.043 0.016,0.026 0,0.034 0.025,0.026 0.027,0.076 0.005,0 0.011,0.039 c 0.238,0.334 0.152,0.092 0.364,0.35 l 0.112,0.094 m 10.987,12.999 0.013,0.008 0.055,0.043 0.164,0 0,-0.026 -0.051,-0.043 -0.181,-0.026 0,0.044 z m 6.357,-3.842 c -0.099,0.09 -0.192,0.188 -0.267,0.291 l -0.053,0.166 -0.06,0.048 -0.023,0.042 -0.02,0.085 -0.156,0.21 c -0.095,0.068 -0.144,0.183 -0.255,0.235 l -0.132,0.107 -0.028,0.042 0.011,0.021 0.024,0.04 0,0.063 -0.167,0.133 -0.085,0.086 -0.211,0.174 c -0.1,0.048 -0.196,0.103 -0.316,0.103 -0.108,0.047 -0.236,0.06 -0.336,0.128 l -0.211,0.099 -0.204,0.131 -0.084,0.069 -0.012,0.06 0.224,-0.051 0.136,0.008 0.008,0.055 -0.028,0.039 -0.176,0.047 -0.184,0.026 -0.155,0.12 0.036,0.026 0.26,-0.048 0.095,-0.017 C 1.894,-0.769 1.982,-0.812 2.078,-0.8 l 0.147,0.044 -0.02,0.038 c -0.2,0.017 -0.367,0.111 -0.559,0.136 l -0.188,0.074 0.089,0.047 c 0.115,0.012 0.215,-0.026 0.319,-0.026 0.192,-0.021 0.359,-0.085 0.527,-0.158 l 0.208,-0.099 0.064,0.035 0,0.068 -0.052,0.043 -0.176,0.132 C 2.333,-0.487 2.282,-0.381 2.174,-0.401 2.01,-0.381 1.85,-0.329 1.679,-0.346 l -0.2,0.03 -0.028,0.038 0.028,0.026 0.163,0.012 c 0.088,0.014 0.176,0.014 0.268,0.022 0.136,0.021 0.295,0.013 0.431,-0.013 l 0.024,0.017 0,0.043 C 2.182,-0.09 1.974,-0.137 1.774,-0.119 l -0.24,-0.014 -0.024,0.03 0.176,0.099 c 0.104,0.059 0.24,0.068 0.336,0.145 0.096,0.043 0.207,0.047 0.311,0.055 l 0.204,0.146 0.016,0.029 0.053,0.099 0.043,0.072 0.012,0.077 0.004,0 0.004,0.056 0.004,0.051 0.012,0.137 0.004,0.137 0.012,0.004 -0.012,0.09 0.012,0.051 0,0.171 -0.008,0.008 c -0.004,0.086 0,0.214 -0.004,0.325 L 2.709,1.701 2.701,1.79 2.709,1.949 2.717,2.06 2.725,2.064 c 0,0.107 0.004,0.205 0.008,0.308 L 2.725,2.418 C 2.697,2.566 2.72,2.97 2.689,3.14 L 2.673,3.235 C 2.681,3.329 2.657,3.406 2.665,3.5 L 2.649,3.538 2.657,3.632 2.649,3.636 2.641,3.811 2.629,3.845 2.613,3.875 2.613,3.974 2.606,3.978 2.593,4.103 2.565,4.162 2.557,4.248 2.545,4.337 2.537,4.448 l 0,0.218 -0.012,0.004 0.008,0.009 -0.008,0.004 0.008,0.06 -0.004,0 L 2.525,4.884 2.517,4.889 2.51,5.02 C 2.458,5.294 2.443,5.567 2.353,5.832 L 2.318,5.943 C 2.274,6.042 2.269,6.191 2.197,6.273 L 2.118,6.316 1.905,6.268 1.882,6.221 1.85,6.187 1.818,6.132 1.786,6.094 1.734,6.003 1.662,5.858 1.594,5.713 1.554,5.645 1.51,5.564 1.483,5.529 1.458,5.491 C 1.419,5.388 1.334,5.32 1.279,5.23 L 1.242,5.165 1.163,5.046 C 0.888,4.529 0.631,4.01 0.364,3.495 L 0.336,3.444 0.32,3.392 C 0.159,2.681 -0.109,2.219 -0.439,1.576 l -0.009,-0.038 -0.036,-0.059 0.02,-0.056 0.016,-0.24 c 0.06,-0.093 0.152,-0.175 0.22,-0.26 L -0.144,0.812 C -0.105,0.673 0.029,0.556 0.016,0.401 l 0,-0.046 -0.1,0.05 -0.132,0.103 C -0.292,0.598 -0.403,0.671 -0.52,0.718 -0.567,0.76 -0.607,0.855 -0.699,0.812 L -0.735,0.744 -0.771,0.718 -0.827,0.645 c 0.107,-0.111 0.26,-0.188 0.375,-0.29 L -0.296,0.218 -0.144,0.047 -0.012,-0.043 0,-0.085 0.012,-0.145 0,-0.175 l -0.032,-0.026 -0.08,0.043 -0.16,0.128 -0.107,0.098 c -0.088,0.073 -0.196,0.116 -0.288,0.188 l -0.145,-0.03 0.096,-0.093 c 0.089,-0.078 0.205,-0.116 0.296,-0.189 l 0.028,-0.055 -0.043,0.008 c -0.185,0.018 -0.352,0.085 -0.54,0.107 -0.092,-0.004 -0.16,0.06 -0.256,0.047 -0.111,0.06 -0.252,0.026 -0.363,0.082 l -0.017,0.02 -0.055,0.031 C -1.79,0.163 -1.91,0.167 -2.037,0.158 l -0.085,0.017 -0.143,0.065 0.007,0.097 c 0.016,0.116 0.168,0.044 0.228,0.12 0.125,0.004 0.208,0.103 0.332,0.103 l 0.032,0.064 -0.188,0.021 0.008,0.018 0.036,0.034 0.199,0.077 L -1.63,0.812 -1.714,0.799 -1.862,0.739 C -1.969,0.744 -2.062,0.722 -2.169,0.718 L -2.242,0.765 -2.321,0.657 C -2.348,0.592 -2.277,0.555 -2.337,0.397 L -2.361,0.214 -2.482,0.184 C -2.609,0.158 -2.737,0.167 -2.861,0.137 l -0.207,-0.03 -0.037,0.133 -0.004,0.076 0.013,0.085 0.007,0.004 -0.007,0.18 0.007,0.026 -0.007,0.03 0.007,0.077 0.021,0.038 0.008,0.068 0.007,0.081 0.008,0.06 L -3.057,1 -3.077,1.09 -3.1,1.145 l -0.005,0.111 -0.2,0.133 -0.127,0.098 c -0.089,0.171 -0.075,0.279 -0.032,0.462 l 0.016,0.038 0.028,0.055 c 0.061,0.162 0.122,0.32 0.164,0.487 l 0.011,0.073 0.049,0.223 0.004,0 0.004,0.042 0.015,0.085 c 0.078,0.257 0.184,0.496 0.269,0.748 l 0.023,0.056 0.008,0.043 c 0.225,0.633 0.408,0.808 0.736,1.324 l 0.143,0.175 0.096,0.09 0.044,-0.042 C -1.801,5.159 -1.77,4.967 -1.734,4.778 L -1.742,4.538 -1.75,4.534 -1.726,4.482 C -1.702,4.295 -1.679,4.109 -1.67,3.922 L -1.666,3.773 C -1.64,3.651 -1.63,3.609 -1.611,3.478 l 0.017,-0.046 0,-0.125 0.008,-0.004 C -1.594,3.192 -1.57,3.106 -1.578,2.995 L -1.57,2.936 -1.551,2.88 -1.551,2.726 -1.566,2.654 -1.57,2.547 -1.578,2.513 -1.586,2.406 -1.594,2.398 -1.598,2.295 -1.594,2.188 -1.586,2.162 -1.57,2.124 -1.562,1.995 -1.551,1.957 -1.534,1.919 -1.526,1.846 -1.511,1.803 -1.502,1.619 -1.506,1.619 -1.515,1.534 -1.586,1.363 C -1.662,1.265 -1.774,1.171 -1.922,1.175 L -2.129,1.076 -2.233,0.974 -2.242,0.915 -2.222,0.885 -2.218,0.82 -2.173,0.794 c 0.087,0.026 0.179,0.039 0.268,0.069 L -1.774,0.889 -1.63,0.915 -1.834,0.979 -1.922,0.974 -1.93,1 l 0.2,0.107 c 0.088,0.056 0.172,0.115 0.247,0.187 l 0.041,0.073 c 0.076,0.078 0.051,0.252 0.048,0.354 l 0,0.073 -0.012,0.06 -0.017,0.065 0,0.32 -0.007,0.004 -0.021,0.069 0,0.26 0.013,0.004 0,0.094 0.008,0.159 -0.008,0.047 -0.02,0.064 0,0.282 0.007,0.004 -0.007,0.039 C -1.437,3.5 -1.502,3.723 -1.511,3.952 L -1.519,4.016 C -1.571,4.168 -1.52,4.217 -1.578,4.337 L -1.586,4.44 -1.606,4.5 c 0.012,0.093 -0.012,0.17 -0.005,0.268 L -1.622,4.845 C -1.653,5.234 -1.717,5.213 -1.766,5.491 L -1.786,5.546 -1.958,5.55 -2.041,5.457 -2.173,5.332 -2.186,5.316 -2.193,5.268 -2.218,5.226 -2.273,5.153 -2.382,4.978 -2.465,4.875 C -2.62,4.737 -2.631,4.57 -2.785,4.384 L -2.793,4.337 -2.817,4.282 C -2.899,4.008 -3.044,3.774 -3.105,3.517 L -3.149,3.426 -3.156,3.38 -3.181,3.32 -3.2,3.295 C -3.287,2.98 -3.385,2.901 -3.42,2.538 L -3.432,2.448 -3.448,2.418 C -3.46,2.166 -3.712,1.832 -3.612,1.598 L -3.592,1.546 -3.568,1.5 -3.516,1.41 c 0.06,-0.102 0.192,-0.111 0.284,-0.184 L -3.149,1.157 -3.22,1.017 -3.341,1.068 C -3.464,1.09 -3.548,1.179 -3.648,1.231 L -3.876,1.308 -3.963,1.269 -3.859,1.179 C -3.763,1.171 -3.672,1.137 -3.612,1.072 L -3.696,0.991 -3.756,0.915 -3.532,0.901 c 0.104,-0.03 0.236,-0.008 0.319,-0.093 L -3.232,0.744 -3.484,0.722 -3.603,0.679 -3.62,0.649 -3.473,0.657 -3.252,0.649 -3.241,0.56 -3.292,0.504 c -0.1,-0.022 -0.204,-0.034 -0.3,-0.06 l -0.028,-0.055 0.056,-0.018 0.232,0.069 0.083,-0.021 0,-0.086 -0.079,-0.085 -0.18,-0.09 -0.223,-0.09 -0.164,-0.094 -0.092,-0.008 0.007,0.094 0.008,0.051 -0.012,0.056 -0.015,0.047 -0.116,0.06 -0.204,0.038 -0.008,0.039 -0.016,0.059 -0.072,0.197 -0.012,0.021 -0.036,0.069 c -0.036,0.127 -0.14,0.2 -0.224,0.29 l -0.152,0.12 C -5.097,1.438 -5.104,1.599 -5.318,1.902 L -5.51,2.077 c -0.152,0.055 -0.3,0.128 -0.395,0.252 l -0.008,0.055 -0.008,0.056 -0.02,0.055 -0.004,0.129 -0.021,0.072 0,0.013 0.008,0.09 -0.015,0.042 -0.017,0.035 -0.015,0.068 -0.021,0.026 -0.023,0.085 -0.02,0.026 -0.025,0.064 -0.043,0.068 -0.021,0.068 -0.003,0.056 -0.024,0.043 -0.068,0.179 -0.072,0.125 -0.02,0.059 -0.016,0.056 -0.02,0.038 -0.032,0.09 L -6.433,3.96 -6.52,3.982 -6.577,3.927 C -6.681,3.775 -6.702,3.233 -6.74,3.098 L -6.78,3.081 -6.833,3.174 c -0.07,0.154 -0.12,0.273 -0.175,0.428 L -7.096,3.718 -7.16,3.704 -7.18,3.649 -7.196,3.567 -7.208,3.512 -7.224,3.414 -7.24,3.354 -7.252,3.154 -7.26,3.149 l 0,-0.094 -0.016,-0.085 0,-0.205 0.008,-0.004 -0.008,-0.026 0,-0.171 0.008,-0.005 0.008,-0.132 C -7.232,2.333 -7.206,2.244 -7.18,2.149 L -7.192,2.06 C -7.18,1.949 -7.204,1.854 -7.196,1.743 l 0.008,-0.068 0.003,0 0,-0.129 C -7.419,1.132 -7.347,1.249 -7.408,0.901 L -7.411,0.769 -7.424,0.76 -7.411,0.693 c 0.002,-0.136 0.033,-0.298 0.047,-0.445 l 0.017,-0.069 c 0,-0.098 -0.009,-0.153 -0.005,-0.256 l -0.012,-0.004 -0.008,-0.064 c -0.037,-0.2 -0.051,-0.404 0.025,-0.599 l 0.032,-0.141 0.003,0 0.024,-0.09 0.072,-0.17 0.044,-0.09 0.068,-0.124 -0.104,-0.124 -0.088,-0.098 -0.064,0.017 -0.004,-0.013 -0.024,0.013 -0.084,-0.072 -0.02,0.072 0.009,0.089 -0.06,0.035 -0.072,-0.107 -0.045,-0.111 -0.024,-0.047 c -0.165,-0.127 -0.221,-0.38 -0.351,-0.556 L -8.079,-2.32 -8.095,-2.368 C -8.147,-2.5 -8.218,-2.619 -8.278,-2.747 L -8.342,-2.85 -8.37,-2.928 -8.399,-2.966 c -0.22,-0.322 -0.355,-0.693 -0.411,-1.089 l -0.02,-0.06 -0.008,-0.124 -0.004,0 -0.005,-0.043 -0.007,-0.042 -0.016,-0.039 -0.008,-0.111 -0.02,-0.038 -0.124,-0.175 -0.112,-0.065 -0.152,-0.068 C -9.482,-4.854 -9.665,-4.931 -9.845,-4.995 L -9.917,-5.05 c -0.128,-0.005 -0.191,-0.103 -0.276,-0.167 l 0,-0.013 -0.024,-0.039 -0.007,-0.063 -0.029,-0.056 -0.007,-0.133 0,-0.081 0.007,-0.056 0.012,-0.063 -0.004,-0.116 -0.04,-0.086 -0.075,-0.183 -0.028,-0.115 -0.008,-0.018 -0.064,-0.133 -0.053,0.01 -0.135,-0.004 0,0.004 -0.116,0.055 -0.156,-0.034 0.008,-0.06 0.056,-0.03 0.219,-0.064 0.16,-0.077 0.025,-0.047 0.02,-0.077 0,-0.141 -0.009,-0.039 -0.027,-0.038 c -0.12,-0.016 -0.232,-0.051 -0.344,-0.077 -0.144,-0.038 -0.264,-0.111 -0.404,-0.157 l -0.224,-0.103 -0.003,-0.056 0.024,-0.06 0.203,0.06 0.249,0.119 c 0.159,0.044 0.303,0.133 0.475,0.151 l 0.024,-0.039 0.012,-0.052 -0.012,-0.064 -0.016,-0.038 -0.008,-0.047 -0.021,-0.034 -0.015,-0.064 -0.008,-0.065 -0.016,-0.029 -0.021,-0.064 -0.159,-0.111 -0.06,-0.086 0.212,0.022 0.088,-0.086 0.008,-0.094 0.016,-0.043 0.016,-0.051 0.02,-0.03 0.008,-0.089 0.015,-0.039 0.013,-0.06 0.015,-0.038 0.017,-0.052 0.028,-0.043 -0.02,-0.06 c -0.08,-0.038 -0.168,-0.076 -0.264,-0.085 l -0.148,-0.055 -0.06,-0.052 -0.016,-0.068 0.016,-0.111 0.012,-0.038 -0.012,-0.004 -0.084,-0.116 -0.068,-0.146 -0.055,-0.097 -0.113,-0.155 -0.128,-0.068 -0.179,-0.17 -0.06,-0.082 -0.012,-0.034 -0.016,-0.039 -0.025,-0.042 -0.155,-0.133 -0.056,-0.103 c -0.04,-0.123 -0.179,-0.17 -0.239,-0.277 -0.029,-0.094 -0.149,-0.102 -0.189,-0.184 -0.103,-0.064 -0.167,-0.158 -0.259,-0.23 l -0.148,-0.116 -0.143,-0.068 0.059,-0.103 -0.087,-0.12 c -0.096,-0.059 -0.164,-0.132 -0.224,-0.218 l -0.068,-0.085 0.007,-0.038 0.032,-0.107 -0.015,-0.026 -0.145,-0.166 -0.043,-0.06 -0.068,-0.111 -0.012,-0.06 0.02,-0.034 -0.008,-0.073 -0.084,-0.119 -0.048,-0.078 -0.044,-0.063 -0.004,-0.06 -0.02,-0.077 -0.024,-0.077 -0.151,-0.175 -0.032,-0.048 -0.017,-0.042 -0.119,-0.171 -0.045,-0.103 -0.007,-0.025 -0.012,-0.064 -0.017,-0.043 -0.015,-0.06 -0.013,-0.107 -0.004,-0.153 -0.011,-0.026 0.015,-0.056 -0.1,-0.124 c -0.065,-0.217 -0.086,-0.169 -0.147,-0.32 l 0.015,-0.026 c 0.068,-0.121 0.019,-0.439 -0.043,-0.564 l -0.004,-0.081 0.04,-0.026 0.036,0.064 0.016,0.077 0.008,0.069 0.02,0.034 0.016,0.046 0.016,0.069 -0.008,0.154 0.016,0.047 0.019,0.056 0.025,0.051 0.052,0.068 0,0.06 -0.005,0.055 0.013,0.039 0.139,0.171 0.089,0.094 0.023,0.039 0,0.016 -0.068,0.116 0.024,0.017 c 0.104,0.034 0.2,0.103 0.316,0.111 0.112,0.052 0.236,0.167 0.372,0.094 l 0.203,-0.162 0.044,-0.065 0.017,-0.046 0.015,-0.043 0.148,-0.141 0.144,0.021 0.072,0.116 0.016,0.059 0.016,0.056 0.02,0.047 0,0.286 -0.013,0.078 -0.007,0.059 -0.008,0.107 -0.008,0 0,0.572 -0.016,0.052 -0.02,0.047 -0.008,0.042 -0.064,0.116 -0.24,-0.047 -0.04,-0.035 -0.207,-0.111 c -0.085,-0.042 -0.145,-0.132 -0.24,-0.137 l 0.036,0.103 0.032,0.086 0.016,0.064 0.007,0.081 c 0.089,0.055 0.153,0.141 0.245,0.196 l 0.015,0.039 -0.087,0.009 -0.06,-0.013 0.023,0.038 0.152,0.171 c 0.116,0.056 0.16,0.159 0.248,0.235 l 0.032,0.12 -0.1,0.008 0,0.022 c 0.36,0.312 0.322,0.512 0.855,0.854 l 0.216,0.218 c 0.088,0.004 0.1,0.094 0.168,0.125 0.123,0.149 0.336,0.187 0.499,0.307 0.148,0.09 0.316,0.132 0.492,0.166 l 0.264,0.069 0.131,0.026 0.008,-0.095 0.061,-0.02 c 0.123,-0.069 0.267,-0.129 0.422,-0.116 0.089,0.034 0.232,0.051 0.3,-0.021 0.1,-0.026 0.152,-0.111 0.26,-0.125 l 0.168,-0.056 0.164,-0.127 0.131,-0.115 c 0.072,-0.082 0.192,-0.111 0.256,-0.206 l 0.157,-0.102 0.139,-0.077 c 0.1,-0.047 0.168,-0.133 0.276,-0.171 l 0.084,0.018 -0.052,0.11 -0.2,0.103 -0.247,0.154 c -0.105,0.06 -0.209,0.132 -0.288,0.209 l -0.189,0.162 -0.207,0.15 c -0.104,0.017 -0.196,0.077 -0.296,0.107 -0.079,0.025 -0.143,0.081 -0.232,0.098 l -0.199,0.009 -0.176,0.077 c -0.092,-0.022 -0.096,0.081 -0.176,0.093 -0.1,0.009 -0.208,0.022 -0.312,0.009 -0.107,0.013 -0.179,-0.09 -0.284,-0.043 -0.087,-0.004 -0.163,-0.047 -0.247,-0.051 -0.112,-0.043 -0.215,-0.085 -0.311,-0.154 l -0.156,-0.081 -0.168,-0.039 0.008,0.056 c 0.06,0.111 0.192,0.145 0.279,0.24 l 0.037,0.004 0.107,0.123 0.016,0.052 0.02,0.029 0.072,0.086 0.108,0.158 0.144,0.137 0.036,0.086 0.055,0.081 0.021,0.076 c 0.075,0.069 0.192,0.065 0.284,0.099 l 0.019,0.034 -0.06,0.094 0.037,0.116 c -0.087,0.324 -0.247,0.472 -0.205,0.884 l 0.021,0.039 0.007,0.059 0.017,0.047 0.008,0.055 0.02,0.048 0,0.093 0.016,0.073 0.016,0.133 0.019,0.042 0,0.099 -0.019,0.051 -0.016,0.06 0.007,0.052 0.017,0.081 -0.004,0.05 0.004,0 0.004,0.052 c 0.114,0.199 0.052,0.173 0.124,0.316 l 0.1,0.124 -0.028,0.086 -0.025,0.102 -0.011,0.223 0.099,0.238 0.14,0.038 0.179,-0.101 c 0.117,-0.022 0.173,-0.133 0.253,-0.189 l 0.02,-0.034 0.059,-0.098 0.028,-0.072 -0.011,-0.018 0,-0.128 0.036,-0.039 0.103,0.034 0,0.176 -0.024,0.064 -0.019,0.056 -0.036,0.068 c -0.064,0.077 -0.132,0.158 -0.22,0.214 l -0.057,0.047 -0.159,0.106 0.156,0.099 0.06,-0.022 0.007,-0.042 c 0.093,-0.099 0.181,0.068 0.292,0.038 l 0.028,-0.056 0,-0.047 0.084,-0.004 0.267,-0.017 C -8.734,-5.226 -8.91,-5.247 -8.89,-5.324 l 0.228,-0.073 -0.012,-0.038 -0.024,-0.038 0.008,-0.039 0.135,-0.048 0.045,0.039 -0.105,0.102 0.021,0.077 0.007,0.005 -0.007,0.029 -0.14,0.193 -0.04,0.055 -0.132,0.048 -0.096,0.077 0.016,0.119 0.212,0.171 0.059,-0.03 0.06,0.022 0.008,0.025 0.009,0.146 0.015,0.025 0.008,0.072 0.021,0.078 0.007,0.063 0.017,0.026 0.011,0.069 0.017,0.042 -0.013,0.069 -0.06,-0.043 -0.015,-0.038 -0.008,-0.06 -0.017,-0.047 -0.035,-0.154 -0.02,-0.055 -0.005,0.038 0.017,0.051 0,0.112 0.008,0.004 0.007,0.175 0.017,0.051 c 0.051,0.188 0.05,0.402 0.168,0.56 l 0.071,0.137 0.08,0.192 c 0.164,0.282 0.326,0.689 0.491,0.953 l 0.061,0.115 0.052,0.052 -0.004,-0.107 0.048,-0.038 0.047,0.093 0.06,0.145 0.024,0.048 0.029,0.042 0.06,0.021 0.059,-0.067 0.092,0.042 0.148,0.192 0.016,0.026 0.016,0.038 0.116,0.115 0.228,-0.03 0.011,-0.02 0.021,-0.082 0.124,0.056 c 0.064,0.098 0.155,0.175 0.227,0.265 0.128,0.111 0.236,0.23 0.391,0.315 l 0.04,-0.008 0.145,0.022 c 0.1,0.093 0.252,0.127 0.363,0.2 0.08,0.073 0.204,0.099 0.304,0.15 0.088,0.043 0.192,0.043 0.275,0.085 0.152,0.039 0.268,0.133 0.408,0.18 0.116,0.022 0.2,0.103 0.323,0.098 0.113,0.021 0.217,0.077 0.332,0.09 0.109,0.013 0.208,0.068 0.316,0.051 l 0.151,0.039 c 0.096,0.046 0.205,0.03 0.313,0.042 0.087,0.03 0.192,0.026 0.283,0.043 0.12,0.043 0.228,-0.034 0.348,-0.021 0.343,0.038 0.687,-0.022 1.01,-0.082 0.132,-0.038 0.284,-0.021 0.416,-0.063 l 0.1,-0.014 0.116,-0.016 0.06,-0.081 -0.012,-0.044 0.119,-0.111 -0.143,-0.072 -0.004,-0.043 c 0.083,-0.056 0.204,-0.021 0.303,-0.03 l 0.18,-0.012 0.18,0.008 0.06,-0.085 0.072,-0.013 0.024,0.038 0.008,0.064 0.016,0.099 c 0.074,0.225 0.038,0.534 0.08,0.739 l 0,0.192 C -0.356,1.594 -0.516,0.989 0.024,2.11 L 0.052,2.183 C 0.058,2.4 0.273,2.621 0.275,2.799 l 0.013,0.081 0.028,0.051 0.012,0.077 0.008,0 0.003,0.035 C 0.678,4.069 1.384,5.109 1.898,6.042 L 2.01,6.191 2.165,6.174 2.182,5.957 2.19,5.953 2.21,5.88 2.233,5.824 2.25,5.781 2.269,5.717 2.278,5.64 2.293,5.55 2.305,5.435 2.321,5.371 l 0,-0.107 0.008,-0.008 0.012,-0.158 0.005,0 0.007,-0.141 C 2.38,4.9 2.4,4.754 2.425,4.717 l 0,-0.116 0.008,-0.004 0,-0.363 L 2.442,4.226 2.449,4.17 2.465,4.127 2.478,4.067 2.493,3.96 2.493,3.807 2.51,3.764 2.521,3.674 2.537,3.606 2.545,3.517 2.565,3.491 2.553,3.466 2.565,3.371 2.569,3.119 2.581,3.115 2.589,2.88 2.601,2.785 2.606,2.785 2.597,2.773 C 2.593,2.571 2.646,2.359 2.629,2.231 L 2.625,2.055 2.613,2.051 2.613,1.953 2.597,1.884 2.597,1.765 2.589,1.761 2.581,1.619 2.589,1.487 l 0,-0.244 -0.02,-0.056 0.012,-0.063 0,-0.112 -0.012,-0.008 0,-0.141 L 2.565,0.769 2.545,0.718 2.537,0.633 2.521,0.572 2.493,0.482 C 2.417,0.363 2.261,0.32 2.11,0.316 2.022,0.32 1.962,0.252 1.882,0.24 1.79,0.196 1.682,0.188 1.579,0.163 1.475,0.123 1.387,0.043 1.33,-0.047 L 1.311,-0.094 C 1.334,-0.635 1.07,-0.866 1.067,-1.154 l 0.043,-0.039 0.105,0.077 0.019,0.034 0.017,0.052 0.143,-0.038 C 1.51,-1.094 1.598,-1.158 1.682,-1.227 1.85,-1.32 2.005,-1.445 2.197,-1.491 l 0.072,-0.03 C 2.361,-1.534 2.433,-1.586 2.525,-1.602 2.645,-1.684 2.804,-1.717 2.9,-1.829 L 2.889,-1.884 2.753,-1.906 2.685,-1.957 2.861,-2.06 3.141,-2.218 C 3.296,-2.269 3.405,-2.384 3.492,-2.495 L 3.512,-2.551 3.48,-2.569 C 3.4,-2.539 3.312,-2.5 3.22,-2.509 l -0.079,-0.055 0.111,-0.06 c 0.156,-0.034 0.304,-0.111 0.404,-0.213 l 0.156,-0.154 0.143,-0.15 0.108,-0.119 0.096,-0.107 0.048,0 -0.032,0.081"
               id="path6491"
               style="fill:#ffffff;fill-opacity:1;fill-rule:nonzero;stroke:none" />
          </g>
          <g
             transform="translate(526.47749,63.916901)"
             id="g6493"
             style="fill:#ffffff">
            <path
               d="m 0,0 0.016,-0.026 0.004,-0.115 0.004,-0.068 -0.008,-0.009 -0.1,-0.03 -0.036,0.026 -0.02,0.043 -0.036,0.119 0.029,0.034 0,0.014 0.043,0.02 L 0,0 z"
               id="path6495"
               style="fill:#ffffff;fill-opacity:1;fill-rule:nonzero;stroke:none" />
          </g>
        </g>
      </g>
    </g>
  </g>
</svg>
